<?xml version="1.0" encoding="UTF-8"?>
<svg xmlns="http://www.w3.org/2000/svg" viewBox="0 0 128 128" width="128" height="128" aria-hidden="true" role="img">
  <!-- Color -->
  <defs>
    <style>
      .g { fill: #11A85C; }              /* main green */
      .stroke { fill: none; stroke: #11A85C; stroke-width: 8; stroke-linecap: round; stroke-linejoin: round; }
      .wick { fill: #11A85C; }           /* candle wicks */
      .cand { fill: #11A85C; }           /* candle bodies */
      .dollar { fill: #11A85C; font-family: "Arial", Helvetica, sans-serif; font-weight: 700; }
    </style>
  </defs>

  <!-- Circular outline -->
  <circle class="stroke" cx="64" cy="64" r="44" />

  <!-- Arrowheads (clockwise, counterclockwise) -->
  <polygon class="g" points="96,18 108,34 92,34" />   <!-- top-right arrowhead -->
  <polygon class="g" points="20,86 36,98 36,82" />     <!-- bottom-left arrowhead -->

  <!-- Candlestick chart (center-left) -->
  <!-- left candle -->
  <rect class="cand" x="44" y="50" width="6" height="22" rx="1" ry="1"/>
  <rect class="wick" x="46.5" y="44" width="1" height="6"/>
  <rect class="wick" x="46.5" y="72" width="1" height="6"/>

  <!-- middle candle -->
  <rect class="cand" x="56" y="40" width="6" height="34" rx="1" ry="1"/>
  <rect class="wick" x="58.5" y="36" width="1" height="4"/>
  <rect class="wick" x="58.5" y="74" width="1" height="6"/>

  <!-- right candle -->
  <rect class="cand" x="68" y="54" width="6" height="20" rx="1" ry="1"/>
  <rect class="wick" x="70.5" y="50" width="1" height="4"/>
  <rect class="wick" x="70.5" y="74" width="1" height="6"/>

  <!-- Dollar sign (right side) using text for crispness at small sizes) -->
  <text class="dollar" x="92" y="76" font-size="28">$</text>
</svg>
