<svg xmlns="http://www.w3.org/2000/svg" fill="none" viewBox="0 0 32 32" width="16" height="16" role="img"><path fill="#FF002D" d="M20 8h6a2 2 0 0 1 2 2v12a2 2 0 0 1-2 2h-6z"></path><path fill="#fff" d="M20 8h-8v16h8z"></path><path fill="#001F9B" d="M6 8h6v16H6a2 2 0 0 1-2-2V10a2 2 0 0 1 2-2"></path><path fill="#000" fill-opacity="0.08" fill-rule="evenodd" d="M26 9H6a1 1 0 0 0-1 1v12a1 1 0 0 0 1 1h20a1 1 0 0 0 1-1V10a1 1 0 0 0-1-1M6 8a2 2 0 0 0-2 2v12a2 2 0 0 0 2 2h20a2 2 0 0 0 2-2V10a2 2 0 0 0-2-2z" clip-rule="evenodd"></path><path fill="#414652" d="M18 2a2 2 0 0 1 2-2h10a2 2 0 0 1 2 2v6a2 2 0 0 1-2 2H20a2 2 0 0 1-2-2z"></path><path fill="#fff" d="M22.9 8V6.928h-2.457V5.904l2.176-3.488h1.424V6h.704v.928h-.704V8zm-1.497-2H22.9V3.656h-.08zM27.4 8.096q-1.096 0-1.624-.76t-.528-2.128.528-2.128 1.624-.76 1.624.76.528 2.128-.528 2.128-1.624.76m0-1.016q.48 0 .664-.352t.184-.992V4.68q0-.64-.184-.992t-.664-.352-.664.352-.184.992v1.056q0 .64.184.992t.664.352"></path></svg>